<?xml version="1.0" encoding="UTF-8"?>
<svg width="16px" height="16px" viewBox="0 0 16 16" version="1.1" xmlns="http://www.w3.org/2000/svg" xmlns:xlink="http://www.w3.org/1999/xlink">
    <title>arrow_back</title>
    <g id="arrow_back" stroke="none" stroke-width="1" fill="none" fill-rule="evenodd">
        <g transform="translate(0.000000, 1.600000)" fill="#FFFFFF" fill-rule="nonzero" id="Path">
            <path d="M6.42172631,12.6962711 C6.27082106,12.6962711 6.12008421,12.6392329 6.00488421,12.5248219 L0.222652631,6.78219467 C-0.00757894738,6.55370729 -0.00757894738,6.18287527 0.222652631,5.95438788 L6.00488421,0.211760635 C6.23528421,-0.0170612834 6.60816842,-0.0170612834 6.83856842,0.211760635 C7.0688,0.440248018 7.0688,0.811080028 6.83856842,1.03956741 L1.47317895,6.36820765 L6.83856842,11.6970151 C7.0688,11.9255025 7.0688,12.2963345 6.83856842,12.5248219 C6.72336842,12.6392329 6.57246317,12.6962711 6.42172631,12.6962711"></path>
            <path d="M15.2712421,6.95364384 L0.639494738,6.95364384 C0.313936842,6.95364384 0.0500210527,6.69153569 0.0500210527,6.36820765 C0.0500210527,6.04504686 0.313936842,5.78277144 0.639494738,5.78277144 L15.2712421,5.78277144 C15.5968,5.78277144 15.8607158,6.04504686 15.8607158,6.36820765 C15.8607158,6.69153569 15.5968,6.95364384 15.2712421,6.95364384"></path>
        </g>
    </g>
</svg>